<svg id="Layer_1" data-name="Layer 1" xmlns="http://www.w3.org/2000/svg" viewBox="0 0 337.36 101.07"><defs><style>.cls-1{fill:#fff;}</style></defs><title>rs boot</title><path class="cls-1" d="M0,56.86V1H24.69a15.87,15.87,0,0,1,7.12,1.61A18.45,18.45,0,0,1,37.43,6.9a20.09,20.09,0,0,1,3.7,6,18,18,0,0,1,1.34,6.72,18.56,18.56,0,0,1-2.71,9.87,15.57,15.57,0,0,1-7.35,6.41l12.74,21H32.95L21.54,38.15H10.85V56.86ZM10.85,28.64h13.6a5.74,5.74,0,0,0,2.79-.71A7.12,7.12,0,0,0,29.49,26,9.58,9.58,0,0,0,31,23.13a11.13,11.13,0,0,0,.55-3.54A10.08,10.08,0,0,0,30.9,16a9.46,9.46,0,0,0-1.69-2.87,7.67,7.67,0,0,0-2.44-1.89A6.34,6.34,0,0,0,24,10.55H10.85Z"/><path class="cls-1" d="M69.19,57.65a22.86,22.86,0,0,1-9-1.69A20.22,20.22,0,0,1,49,44.6a21.7,21.7,0,0,1-1.53-8.1A22.94,22.94,0,0,1,49,28.2a20.21,20.21,0,0,1,4.32-6.84,20.64,20.64,0,0,1,6.88-4.68A22.91,22.91,0,0,1,69.27,15a22.35,22.35,0,0,1,9,1.73A20.73,20.73,0,0,1,85,21.33a19.75,19.75,0,0,1,4.25,6.76,22.54,22.54,0,0,1,1.45,8q0,1,0,2a8.07,8.07,0,0,1-.2,1.57H58.66A12.23,12.23,0,0,0,59.84,44a10.59,10.59,0,0,0,5.82,5.27,11.1,11.1,0,0,0,3.93.71,12.15,12.15,0,0,0,5.94-1.53,8.12,8.12,0,0,0,3.81-4l9,2.52a18.39,18.39,0,0,1-7.27,7.75A22.54,22.54,0,0,1,69.19,57.65ZM79.89,32.8a11,11,0,0,0-3.42-7.43,10.73,10.73,0,0,0-14.59,0,10.78,10.78,0,0,0-2.32,3.22A11.34,11.34,0,0,0,58.5,32.8Z"/><path class="cls-1" d="M161.19,56.86H150.65V33.75q0-5-1.69-7.23a5.5,5.5,0,0,0-4.68-2.28,8.84,8.84,0,0,0-5.9,2.4,13.2,13.2,0,0,0-3.93,6.25v24H123.92V33.75q0-5-1.69-7.23a5.5,5.5,0,0,0-4.68-2.28,9,9,0,0,0-5.86,2.36,12.83,12.83,0,0,0-4,6.21V56.86H97.18V15.66h9.51v7.63a15.73,15.73,0,0,1,6.25-6.17A18.69,18.69,0,0,1,122,15q5.19,0,8,2.52a11.25,11.25,0,0,1,3.62,6.21A17.8,17.8,0,0,1,140,17.2,17.19,17.19,0,0,1,148.84,15a12.25,12.25,0,0,1,6.21,1.42,10.23,10.23,0,0,1,3.77,3.7,15.51,15.51,0,0,1,1.85,5.19,34.08,34.08,0,0,1,.51,5.9Z"/><path class="cls-1" d="M292.08,54.74a47,47,0,0,1-5.19,1.89,21.8,21.8,0,0,1-6.45.94,15,15,0,0,1-4.13-.55,9,9,0,0,1-3.38-1.77,8.61,8.61,0,0,1-2.32-3.15,11.36,11.36,0,0,1-.87-4.68V23.76h-5.43v-8.1h5.43V2.3h10.54V15.66h8.65v8.1h-8.65V43.89A3.74,3.74,0,0,0,281.43,47a4.35,4.35,0,0,0,2.79.9,9.68,9.68,0,0,0,3.22-.55q1.57-.55,2.52-.94Z"/><path class="cls-1" d="M315.67,57.65a22.86,22.86,0,0,1-9-1.69A20.22,20.22,0,0,1,295.5,44.6,21.7,21.7,0,0,1,294,36.5a22.94,22.94,0,0,1,1.49-8.3,20.21,20.21,0,0,1,4.32-6.84,20.64,20.64,0,0,1,6.88-4.68A22.91,22.91,0,0,1,315.75,15a22.35,22.35,0,0,1,9,1.73,20.73,20.73,0,0,1,6.76,4.64,19.75,19.75,0,0,1,4.25,6.76,22.54,22.54,0,0,1,1.45,8q0,1,0,2a8.07,8.07,0,0,1-.2,1.57H305.13A12.23,12.23,0,0,0,306.31,44a10.59,10.59,0,0,0,5.82,5.27,11.1,11.1,0,0,0,3.93.71A12.15,12.15,0,0,0,322,48.41a8.12,8.12,0,0,0,3.81-4l9,2.52a18.39,18.39,0,0,1-7.27,7.75A22.54,22.54,0,0,1,315.67,57.65ZM326.36,32.8a11,11,0,0,0-3.42-7.43,10.73,10.73,0,0,0-14.59,0A10.78,10.78,0,0,0,306,28.64,11.34,11.34,0,0,0,305,32.8Z"/><path class="cls-1" d="M15.31,83.75a4.5,4.5,0,0,0-1-.82A8.73,8.73,0,0,0,13,82.21a9.74,9.74,0,0,0-1.66-.52,8.73,8.73,0,0,0-1.88-.2,5.89,5.89,0,0,0-3.7.95A3.15,3.15,0,0,0,4.54,85a2.88,2.88,0,0,0,.34,1.46,2.76,2.76,0,0,0,1.05,1,8,8,0,0,0,1.78.72q1.07.31,2.53.64a26.17,26.17,0,0,1,3,.84,8.85,8.85,0,0,1,2.32,1.17,4.7,4.7,0,0,1,1.46,1.71,5.48,5.48,0,0,1,.5,2.47,5.66,5.66,0,0,1-.61,2.7,5.41,5.41,0,0,1-1.66,1.89,7.19,7.19,0,0,1-2.48,1.1,13.11,13.11,0,0,1-3.11.35A14.36,14.36,0,0,1,5,100.29,13.25,13.25,0,0,1,.88,98L2.19,95.7a7.25,7.25,0,0,0,1.27,1,10.28,10.28,0,0,0,1.77.93,13,13,0,0,0,2.13.67,10.74,10.74,0,0,0,2.39.26,6.63,6.63,0,0,0,3.6-.82,3,3,0,0,0,.87-4A3.5,3.5,0,0,0,13,92.68a9.32,9.32,0,0,0-2-.81q-1.18-.35-2.67-.72a26.74,26.74,0,0,1-2.9-.85,7.89,7.89,0,0,1-2.09-1.1,4.13,4.13,0,0,1-1.27-1.55,5.15,5.15,0,0,1-.43-2.2,6.18,6.18,0,0,1,.58-2.74,5.75,5.75,0,0,1,1.62-2,7.06,7.06,0,0,1,2.47-1.23,11.23,11.23,0,0,1,3.11-.41,10.89,10.89,0,0,1,7.1,2.47Z"/><path class="cls-1" d="M55.61,100.86V79.21h2.74v21.65Z"/><path class="cls-1" d="M113.26,97.93a8.77,8.77,0,0,1-6.59,3.08,8.67,8.67,0,0,1-4-.95,10.57,10.57,0,0,1-3.19-2.49,12,12,0,0,1-2.12-3.52A11.09,11.09,0,0,1,96.59,90a11.48,11.48,0,0,1,2.87-7.64,10,10,0,0,1,3.2-2.39,9.26,9.26,0,0,1,4-.88,9.36,9.36,0,0,1,5.17,1.31,8.7,8.7,0,0,1,3.1,3.42l-2.1,1.46a6.57,6.57,0,0,0-2.59-2.81,7.24,7.24,0,0,0-3.63-.91,6.24,6.24,0,0,0-3,.72,7.34,7.34,0,0,0-2.29,1.89,8.7,8.7,0,0,0-1.46,2.71A9.92,9.92,0,0,0,99.36,90a9.22,9.22,0,0,0,.58,3.28A9,9,0,0,0,101.53,96a7.34,7.34,0,0,0,2.38,1.84,6.69,6.69,0,0,0,3,.67q3.54,0,6.37-3.41v-3H108.6V90.06h7v10.79h-2.32Z"/><path class="cls-1" d="M157,84.33v16.53h-2.74V79.21h2.13l13.41,16.86V79.24h2.74v21.62h-2.32Z"/><path class="cls-1" d="M218.72,79.21H221l8.84,21.65H227l-2.56-6.34h-9.09l-2.53,6.34h-2.93Zm5.06,13.17-3.9-10-4,10Z"/><path class="cls-1" d="M281.71,97.93a8.77,8.77,0,0,1-6.59,3.08,8.67,8.67,0,0,1-4-.95,10.57,10.57,0,0,1-3.19-2.49,12,12,0,0,1-2.12-3.52A11.09,11.09,0,0,1,265,90a11.48,11.48,0,0,1,2.87-7.64,10,10,0,0,1,3.2-2.39,9.26,9.26,0,0,1,4-.88,9.36,9.36,0,0,1,5.17,1.31,8.7,8.7,0,0,1,3.1,3.42l-2.1,1.46a6.57,6.57,0,0,0-2.59-2.81,7.24,7.24,0,0,0-3.63-.91,6.24,6.24,0,0,0-3,.72,7.34,7.34,0,0,0-2.29,1.89,8.7,8.7,0,0,0-1.46,2.71,9.92,9.92,0,0,0-.52,3.19,9.22,9.22,0,0,0,.58,3.28A9,9,0,0,0,270,96a7.34,7.34,0,0,0,2.38,1.84,6.69,6.69,0,0,0,3,.67q3.54,0,6.37-3.41v-3H277V90.06h7v10.79h-2.32Z"/><path class="cls-1" d="M337.36,98.42v2.44h-14.7V79.21h14.42v2.44H325.4v7h10.15v2.29H325.4v7.47Z"/><path class="cls-1" d="M237.26,14.4c-.67,0-1.34,0-2,0a22.39,22.39,0,0,0-40-3.62A22.87,22.87,0,0,0,194,56.46c8.6.51,42,1,49.1-1.56a20.88,20.88,0,0,0-5.84-40.5ZM221.57,47.57H207.82a1.06,1.06,0,1,1,0-2.11h13.75a1.06,1.06,0,1,1,0,2.11Zm12.65-4.94a1.76,1.76,0,0,1-1.75,1.75H196.92a1.76,1.76,0,0,1-1.75-1.75V20.5a1.76,1.76,0,0,1,1.75-1.75h35.54a1.76,1.76,0,0,1,1.75,1.75Z"/></svg>